<svg id="visual" viewBox="0 0 960 540" width="960" height="540" xmlns="http://www.w3.org/2000/svg" xmlns:xlink="http://www.w3.org/1999/xlink" version="1.1"><rect x="0" y="0" width="960" height="540" fill="#001220"></rect><defs><linearGradient id="grad1_0" x1="43.8%" y1="0%" x2="100%" y2="100%"><stop offset="14.444444444444446%" stop-color="#001220" stop-opacity="1"></stop><stop offset="85.55555555555554%" stop-color="#001220" stop-opacity="1"></stop></linearGradient></defs><defs><linearGradient id="grad2_0" x1="0%" y1="0%" x2="56.3%" y2="100%"><stop offset="14.444444444444446%" stop-color="#001220" stop-opacity="1"></stop><stop offset="85.55555555555554%" stop-color="#001220" stop-opacity="1"></stop></linearGradient></defs><g transform="translate(960, 0)"><path d="M0 486C-62.9 478.6 -125.8 471.2 -186 449C-246.2 426.8 -303.6 389.8 -340.8 340.8C-378 291.9 -394.9 231 -415.7 172.2C-436.6 113.4 -461.3 56.7 -486 0L0 0Z" fill="#FBAE3C"></path></g><g transform="translate(0, 540)"><path d="M0 -486C59 -469 118.1 -452 178.7 -431.5C239.4 -411 301.6 -387 343.7 -343.7C385.7 -300.3 407.4 -237.7 427.8 -177.2C448.1 -116.7 467.1 -58.3 486 0L0 0Z" fill="#FBAE3C"></path></g></svg>